<svg width="48" height="36" viewBox="0 0 48 36" fill="none" xmlns="http://www.w3.org/2000/svg">
<path d="M0 0.3253C2.44301 0.108433 4.95484 0 7.53548 0C10.1161 0 12.3183 0.650601 14.1419 1.9518C16 3.25301 16.929 5.1506 16.929 7.64458C16.929 9.52409 16.4473 11.259 15.4839 12.8494C14.5204 14.4398 13.3505 15.6506 11.9742 16.4819C14.2108 17.1687 16.0688 18.3976 17.5484 20.1687C19.028 21.9398 19.7677 23.9458 19.7677 26.1867C19.7677 29.2952 18.8215 31.6446 16.929 33.2349C15.071 34.8253 12.4387 35.6205 9.03226 35.6205C5.62581 35.6205 2.61505 35.494 0 35.241V0.3253ZM4.69677 17.5663L2.37419 17.6205V33.1807C3.85376 33.3253 6.24516 33.3976 9.54839 33.3976C11.7849 33.3976 13.6258 32.747 15.071 31.4458C16.5505 30.1084 17.2903 28.4458 17.2903 26.4578C17.2903 24.4337 16.5505 22.6807 15.071 21.1988C13.6258 19.6807 11.7333 18.6145 9.39355 18C8.18925 17.7108 6.62366 17.5663 4.69677 17.5663ZM14.6065 7.59036C14.6065 5.81927 13.9011 4.46385 12.4903 3.5241C11.0796 2.54819 9.39355 2.06024 7.43226 2.06024C5.47097 2.06024 3.78495 2.11446 2.37419 2.22289V15.506C5.36774 15.506 7.75914 15.5964 9.54839 15.7771C10.8903 15.0181 12.0602 13.9157 13.0581 12.4699C14.0903 10.988 14.6065 9.36144 14.6065 7.59036Z" fill="#2B2A29"/>
<path d="M45.1613 35.512C44.8516 35.1867 44.6968 34.7711 44.6968 34.2651C44.6968 33.759 44.8516 33.3434 45.1613 33.0181C45.471 32.6928 45.8667 32.5301 46.3484 32.5301C46.8301 32.5301 47.2258 32.6928 47.5355 33.0181C47.8452 33.3434 48 33.759 48 34.2651C48 34.7711 47.8452 35.1867 47.5355 35.512C47.2258 35.8373 46.8301 36 46.3484 36C45.8667 36 45.471 35.8373 45.1613 35.512ZM45.4194 27.2169L45.1613 0.108431H47.5355L47.2774 27.2169H45.4194Z" fill="#2B2A29"/>
<path fill-rule="evenodd" clip-rule="evenodd" d="M32.2452 35.3492C37.4117 35.3492 41.6 30.6462 41.6 24.8447C41.6 19.0432 37.4117 14.3401 32.2452 14.3401C27.0787 14.3401 22.8903 19.0432 22.8903 24.8447C22.8903 30.6462 27.0787 35.3492 32.2452 35.3492ZM26.8221 29.864H29.3709L27.9067 24.737H26.8221V29.864ZM33.3298 22.4583H36.5831C36.7479 22.4583 36.9106 22.4978 37.0587 22.5737C37.2068 22.6497 37.3365 22.7601 37.4379 22.8965C37.5393 23.033 37.6098 23.1919 37.644 23.3613C37.6782 23.5307 37.6751 23.706 37.6352 23.8739L36.7561 27.5682C36.6388 28.0613 36.3679 28.499 35.9865 28.8118C35.6052 29.1245 35.1352 29.2944 34.6514 29.2943H30.1302L28.9913 25.3067V24.6003C28.9914 23.9511 29.2018 23.3213 29.5879 22.8143L31.1605 20.7493V18.4706H31.7029C32.1343 18.4706 32.5482 18.6507 32.8533 18.9712C33.1584 19.2917 33.3298 19.7264 33.3298 20.1796V22.4583Z" fill="#F59D0E"/>
<path d="M32.2684 35.6747C29.3987 35.6747 26.9935 34.6229 25.0529 32.5193C23.1123 30.4157 22.1419 27.8458 22.1419 24.8096C22.1419 21.7518 23.1123 19.1711 25.0529 17.0675C26.9935 14.9639 29.3987 13.912 32.2684 13.912C35.1381 13.912 37.5432 14.9639 39.4839 17.0675C41.4245 19.1711 42.3948 21.7518 42.3948 24.8096C42.3948 27.8458 41.4245 30.4157 39.4839 32.5193C37.5432 34.6229 35.1381 35.6747 32.2684 35.6747ZM32.2684 15.2458C29.791 15.2458 27.7265 16.1675 26.0748 18.0108C24.4439 19.8542 23.6284 22.1205 23.6284 24.8096C23.6284 27.4771 24.4439 29.7325 26.0748 31.5759C27.7265 33.3976 29.791 34.3084 32.2684 34.3084C34.7665 34.3084 36.831 33.3976 38.4619 31.5759C40.0929 29.7325 40.9084 27.4771 40.9084 24.8096C40.9084 22.1205 40.0929 19.8542 38.4619 18.0108C36.831 16.1675 34.7665 15.2458 32.2684 15.2458Z" fill="#2B2A29"/>
</svg>
